<?xml version="1.0" encoding="utf-8"?>
<!-- Generator: Adobe Illustrator 21.1.0, SVG Export Plug-In . SVG Version: 6.00 Build 0)  -->
<svg version="1.1" id="Layer_1" xmlns="http://www.w3.org/2000/svg" xmlns:xlink="http://www.w3.org/1999/xlink" x="0px" y="0px"
	 viewBox="0 0 570 200" style="enable-background:new 0 0 570 200;" xml:space="preserve">
<style type="text/css">
	.st0{fill:#2DA8E0;}
	.st1{fill:#E7128C;stroke:#E7128C;stroke-miterlimit:10;}
	.st2{fill:#E7128C;}
	.st3{fill:#E91289;}
</style>
<g>
	<g>
		<path class="st0" d="M15.3,107.1l7.6-11.5c8,6,16.7,9.1,24.2,9.1c7.3,0,11.5-3.1,11.5-8v-0.3c0-5.7-7.8-7.7-16.5-10.4
			C31.1,83.1,19,78.6,19,64.4v-0.3c0-14,11.6-22.5,26.3-22.5c9.2,0,19.3,3.2,27.2,8.4l-6.7,12c-7.1-4.3-14.7-7-20.9-7
			c-6.6,0-10.4,3.1-10.4,7.4v0.3c0,5.3,8,7.6,16.7,10.4c10.8,3.4,23,8.3,23,21.6V95c0,15.5-12,23.2-27.4,23.2
			C36.2,118.2,24.6,114.4,15.3,107.1z"/>
		<path class="st0" d="M84.6,15.4h18.2v16.1H84.6V15.4z M85.3,42.9h16.9v73.9H85.3V42.9z"/>
		<path class="st0" d="M116,42.9h16.9v11.2c4.8-6.6,11.2-12.7,22.5-12.7c10.6,0,18.1,5.2,22,13c6-7.8,13.9-13,25.1-13
			c16.1,0,25.9,10.2,25.9,28.3v47.2h-16.9v-42c0-11.8-5.5-18.1-15-18.1c-9.2,0-15.8,6.4-15.8,18.3v41.7h-16.9V74.7
			c0-11.5-5.6-17.9-15-17.9s-15.8,7-15.8,18.5v41.6H116V42.9z"/>
		<path class="st0" d="M242,42.9H259v12.3c5.5-7.7,13.2-13.9,25.1-13.9c17.5,0,34.5,13.9,34.5,38.4V80c0,24.5-16.8,38.4-34.5,38.4
			c-12.2,0-19.9-6.2-25.1-13v33.9H242V42.9z M301.3,80v-0.3c0-14.3-9.7-23.7-21.1-23.7c-11.5,0-21.6,9.5-21.6,23.7V80
			c0,14.3,10.1,23.7,21.6,23.7C291.8,103.6,301.3,94.5,301.3,80z"/>
		<path class="st0" d="M329.9,14.6h16.9v102.2h-16.9V14.6z"/>
		<path class="st0" d="M357.9,80.1v-0.3c0-21.1,15-38.5,36.1-38.5c23.5,0,35.4,18.5,35.4,39.8c0,1.5-0.1,3.1-0.3,4.8h-54.3
			c1.8,12,10.4,18.8,21.3,18.8c8.3,0,14.1-3.1,20-8.8l9.9,8.8c-7,8.4-16.7,13.9-30.2,13.9C374.4,118.5,357.9,102.9,357.9,80.1z
			 M412.6,74.7c-1.1-10.9-7.6-19.5-18.8-19.5c-10.4,0-17.6,8-19.2,19.5H412.6z"/>
	</g>
	<g>
		<path class="st1" d="M268.5,149.2h5.7l9.4,28.7l9.6-28.8h4.4l9.7,28.8l9.4-28.7h5.5l-12.6,36H305l-9.6-28.2l-9.7,28.2H281
			L268.5,149.2z"/>
		<path class="st1" d="M345.1,181.1c4.9,0,8.4-2,11.3-5l3.3,3c-3.6,4-7.9,6.7-14.7,6.7c-9.8,0-17.8-7.5-17.8-18.7
			c0-10.4,7.3-18.7,17.1-18.7c10.6,0,16.7,8.4,16.7,18.9c0,0.5,0,1-0.1,1.9h-28.3C333.3,176.7,338.8,181.1,345.1,181.1z
			 M355.5,164.9c-0.6-6.5-4.4-12-11.4-12c-6.1,0-10.8,5.1-11.6,12H355.5z"/>
		<path class="st1" d="M375.6,178v6.8h-5.3v-50.4h5.3v21.9c2.9-4.3,7.1-7.9,13.7-7.9c8.6,0,17.1,6.8,17.1,18.5v0.1
			c0,11.7-8.4,18.6-17.1,18.6C382.6,185.6,378.3,182.1,375.6,178z M400.8,167.1V167c0-8.4-5.8-13.8-12.6-13.8
			c-6.6,0-12.9,5.6-12.9,13.7v0.1c0,8.3,6.3,13.8,12.9,13.8C395.2,180.9,400.8,175.8,400.8,167.1z"/>
		<path class="st1" d="M415.6,136.5h20.8c5.9,0,10.7,1.8,13.7,4.8c2.3,2.3,3.7,5.7,3.7,9.5v0.1c0,8-5.5,12.7-13.1,14.1l14.9,19.8
			h-6.7l-14-18.8h-13.8v18.8h-5.5V136.5z M435.9,161.2c7.3,0,12.4-3.7,12.4-9.9v-0.1c0-5.9-4.6-9.5-12.4-9.5h-14.9v19.6H435.9z"/>
		<path class="st1" d="M477.4,141.6h-16.2v-5h38v5h-16.2v43.3h-5.5V141.6z"/>
		<path class="st1" d="M502.1,160.8v-0.1c0-13.7,10.2-25,24.5-25c8.8,0,14,3.1,18.9,7.7l-3.7,4c-4.1-3.9-8.6-6.6-15.2-6.6
			c-10.7,0-18.7,8.7-18.7,19.8v0.1c0,11.2,8.1,20,18.7,20c6.6,0,11-2.6,15.6-7l3.6,3.5c-5,5.1-10.6,8.5-19.3,8.5
			C512.4,185.7,502.1,174.7,502.1,160.8z"/>
	</g>
	<g>
		<g>
			<path class="st2" d="M444.8,118.1c-0.1,0-0.2,0-0.2,0c-1.3-0.2-2.7-0.4-4.1-0.6l-4.3-0.8l3.4-2.8c1-0.8,2-1.6,2.9-2.5
				c0.8-0.8,2.1-0.7,2.8,0.1c0.7,0.8,0.7,1.9,0.1,2.7c0.9,0.3,1.5,1.2,1.4,2.1C446.7,117.3,445.8,118.1,444.8,118.1z"/>
		</g>
		<g>
			<path class="st2" d="M506.9,118.4c-1,0-1.9-0.8-2-1.8c-0.1-1.1,0.7-2.1,1.8-2.2c2.6-0.2,5.1-0.6,7.6-1.2c1.1-0.3,2.2,0.4,2.4,1.5
				c0.3,1.1-0.4,2.2-1.5,2.4c-2.7,0.6-5.4,1.1-8.2,1.3C507,118.4,507,118.4,506.9,118.4z M496.9,118.4c-0.1,0-0.1,0-0.2,0
				c-2.8-0.2-5.6-0.7-8.2-1.3c-1.1-0.2-1.7-1.3-1.5-2.4s1.3-1.7,2.4-1.5c2.4,0.6,5,1,7.6,1.2c1.1,0.1,1.9,1.1,1.8,2.2
				C498.8,117.6,497.9,118.4,496.9,118.4z M454.8,118.4c-1.1,0-1.9-0.8-2-1.9c-0.1-1.1,0.8-2,1.9-2.1c2.6-0.2,5.1-0.5,7.6-1.1
				c1.1-0.3,2.2,0.4,2.4,1.5s-0.4,2.2-1.5,2.4c-2.7,0.6-5.4,1-8.3,1.2C454.9,118.4,454.8,118.4,454.8,118.4z M472.2,114.1
				c-0.8,0-1.5-0.5-1.9-1.3c-0.4-1,0.1-2.2,1.1-2.6l0.1,0c1.8-0.7,3.3-1.3,4.8-1.7l0.8-0.2l0.7,0.4c0.8,0.5,1.7,0.9,2.6,1.4
				c1,0.5,1.4,1.7,0.9,2.7c-0.5,1-1.7,1.4-2.7,0.9c-0.7-0.3-1.4-0.7-2.1-1.1c-1,0.3-2.2,0.8-3.5,1.3l-0.1,0
				C472.7,114.1,472.5,114.1,472.2,114.1z M524.3,113.9c-0.8,0-1.5-0.4-1.8-1.2c-0.5-1,0-2.2,1-2.7c2.3-1.1,4.6-2.3,6.7-3.7
				c0.9-0.6,2.2-0.4,2.8,0.6c0.6,0.9,0.4,2.2-0.6,2.8c-2.3,1.5-4.7,2.9-7.3,4.1C524.8,113.8,524.5,113.9,524.3,113.9z M450.6,107.2
				c-0.4,0-0.8-0.1-1.2-0.4c-0.9-0.6-1.1-1.9-0.5-2.8c1.6-2.2,2.9-4.4,3.9-6.6c0.5-1,1.6-1.5,2.6-1c1,0.5,1.5,1.6,1,2.6
				c-1.1,2.4-2.5,4.8-4.2,7.2C451.8,106.9,451.2,107.2,450.6,107.2z M539,103.6c-0.5,0-1-0.2-1.4-0.6c-0.8-0.8-0.8-2,0-2.8
				c1.8-1.8,3.5-3.8,5-5.9c0.6-0.9,1.9-1.1,2.8-0.5c0.9,0.6,1.1,1.9,0.5,2.8c-1.6,2.3-3.4,4.4-5.4,6.4
				C540,103.4,539.5,103.6,539,103.6z M455.9,90.9c-0.7,0-1.4-0.4-1.8-1.1c-1.2-2.5-2.3-5.1-3.1-7.7c-0.3-1.1,0.3-2.2,1.3-2.5
				c1.1-0.3,2.2,0.3,2.5,1.3c0.8,2.4,1.7,4.8,2.9,7.1c0.5,1,0.1,2.2-0.9,2.7C456.5,90.8,456.2,90.9,455.9,90.9z M549.1,88.9
				c-0.3,0-0.6-0.1-0.8-0.2c-1-0.5-1.5-1.6-1-2.6c1-2.3,1.9-4.8,2.6-7.2c0.3-1.1,1.4-1.7,2.4-1.4c1.1,0.3,1.7,1.4,1.4,2.4
				c-0.7,2.7-1.7,5.3-2.8,7.8C550.6,88.4,549.9,88.9,549.1,88.9z M450.9,73.6c-1,0-1.9-0.8-2-1.8c-0.2-1.8-0.3-3.7-0.3-5.5
				c0-0.5,0-1,0-1.6l0-1.2c0-1.1,1-2,2.1-1.9c1.1,0,2,1,1.9,2.1l0,1.2c0,0.4,0,0.9,0,1.4c0,1.7,0.1,3.4,0.3,5.1
				c0.1,1.1-0.7,2.1-1.8,2.2C451.1,73.6,451,73.6,450.9,73.6z M553.4,71.5c0,0-0.1,0-0.1,0c-1.1-0.1-1.9-1-1.9-2.1
				c0-0.6,0.1-1.2,0.1-1.8l0-0.4c0-0.5,0-1,0-1.5c0-1.3-0.1-2.7-0.2-4.1c-0.1-1.1,0.7-2.1,1.8-2.2c1.1-0.1,2.1,0.7,2.2,1.8
				c0.1,1.5,0.2,2.9,0.2,4.4c0,0.5,0,1.1,0,1.6l0,0.4c0,0.7-0.1,1.3-0.1,1.9C555.3,70.7,554.5,71.5,553.4,71.5z M452.1,55.7
				c-0.2,0-0.3,0-0.5-0.1c-1.1-0.3-1.7-1.3-1.5-2.4c0.7-2.7,1.5-5.4,2.6-7.9c0.4-1,1.6-1.5,2.6-1.1c1,0.4,1.5,1.6,1.1,2.6
				c-1,2.4-1.8,4.8-2.4,7.3C453.9,55.1,453,55.7,452.1,55.7z M551.6,53.6c-0.9,0-1.7-0.6-1.9-1.5c-0.7-2.5-1.6-4.9-2.7-7.2
				c-0.5-1,0-2.2,1-2.7c1-0.5,2.2,0,2.7,1c1.2,2.5,2.2,5.1,2.9,7.8c0.3,1.1-0.3,2.2-1.4,2.5C551.9,53.6,551.8,53.6,551.6,53.6z
				 M459.4,39.3c-0.4,0-0.8-0.1-1.1-0.3c-0.9-0.6-1.2-1.9-0.5-2.8c1.6-2.3,3.3-4.5,5.2-6.5c0.8-0.8,2-0.8,2.8-0.1
				c0.8,0.8,0.8,2,0.1,2.8c-1.8,1.9-3.4,3.9-4.8,6C460.7,39,460,39.3,459.4,39.3z M543.7,37.6c-0.6,0-1.2-0.3-1.6-0.8
				c-1.5-2-3.2-4-5.1-5.8c-0.8-0.8-0.8-2,0-2.8s2-0.8,2.8,0c2,1.9,3.8,4,5.5,6.3c0.7,0.9,0.5,2.1-0.4,2.8
				C544.5,37.4,544.1,37.6,543.7,37.6z M471.9,26.6c-0.6,0-1.2-0.3-1.6-0.8c-0.6-0.9-0.4-2.1,0.5-2.8c2.3-1.6,4.7-3,7.2-4.2
				c1-0.5,2.2-0.1,2.7,0.9c0.5,1,0.1,2.2-0.9,2.7c-2.3,1.1-4.5,2.4-6.6,3.9C472.7,26.4,472.3,26.6,471.9,26.6z M530.5,25.3
				c-0.4,0-0.7-0.1-1.1-0.3c-2.1-1.4-4.4-2.6-6.8-3.6c-1-0.4-1.5-1.6-1-2.6c0.4-1,1.6-1.5,2.6-1c2.5,1.1,5,2.4,7.3,3.9
				c0.9,0.6,1.2,1.8,0.6,2.8C531.8,25,531.2,25.3,530.5,25.3z M488.2,19c-0.9,0-1.7-0.6-1.9-1.5c-0.3-1.1,0.4-2.2,1.4-2.4
				c2.7-0.7,5.4-1.2,8.2-1.5c1.1-0.1,2.1,0.7,2.2,1.8c0.1,1.1-0.7,2.1-1.8,2.2c-2.6,0.3-5.1,0.7-7.6,1.4C488.5,19,488.4,19,488.2,19
				z M514,18.5c-0.1,0-0.3,0-0.4,0c-2.5-0.5-5-0.9-7.6-1.1c-1.1-0.1-1.9-1-1.9-2.1c0.1-1.1,1-1.9,2.1-1.9c2.8,0.2,5.5,0.6,8.2,1.2
				c1.1,0.2,1.8,1.3,1.5,2.4C515.7,17.9,514.9,18.5,514,18.5z"/>
		</g>
	</g>
	<g>
		<path class="st2" d="M493.9,97.4c-0.4,0-0.9-0.1-1.3-0.2c-1.5-0.5-2.6-2-2.8-4l-7-52c-0.3-2,0.3-3.7,1.7-4.6
			c1.4-1,3.4-0.9,5.5,0.2l37.2,19.9c1.9,1,3.1,2.6,3.3,4.5c0.3,1.9-0.5,3.8-2,5.2l0,0l-30.6,29.2C496.6,96.7,495.2,97.4,493.9,97.4z
			 M486.7,39.8c0,0.1-0.1,0.3,0,0.8l7,52c0.1,0.5,0.2,0.7,0.2,0.8c0.2,0,0.6-0.2,1.2-0.7l30.6-29.2c0.6-0.6,0.9-1.2,0.8-1.8
			c-0.1-0.6-0.5-1.1-1.3-1.5L488,40.2C487.3,39.8,486.9,39.7,486.7,39.8z M527,64.9L527,64.9L527,64.9z"/>
	</g>
</g>
<g>
	<path class="st3" d="M541.6,14.7l-2.7,0l0-1.4l6.8,0l0,1.4l-2.7,0l0,7l-1.5,0L541.6,14.7z"/>
	<path class="st3" d="M547.3,13.4l1.6,0l2.5,4l2.6-4l1.6,0l0,8.4l-1.5,0l0-6l-2.7,3.9l0,0l-2.6-3.9l0,6l-1.5,0L547.3,13.4z"/>
</g>
</svg>
